<?xml version="1.0" standalone="no"?>
<!DOCTYPE svg PUBLIC "-//W3C//DTD SVG 20010904//EN"
 "http://www.w3.org/TR/2001/REC-SVG-20010904/DTD/svg10.dtd">
<svg version="1.0" xmlns="http://www.w3.org/2000/svg"
 width="704.000000pt" height="704.000000pt" viewBox="0 0 704.000000 704.000000"
 preserveAspectRatio="xMidYMid meet">
<metadata>
Created by potrace 1.11, written by Peter Selinger 2001-2013
</metadata>
<g transform="translate(0.000000,704.000000) scale(0.100000,-0.100000)"
fill="#000000" stroke="none">
<path d="M10 6235 c0 -4 1178 -1180 2352 -2350 l216 -215 -1273 -1272 c-701
-699 -1272 -1274 -1270 -1277 2 -5 1812 -6 1887 -2 9 1 121 105 249 231 128
127 586 581 1018 1009 432 429 907 899 1054 1045 l268 266 -246 247 c-135 137
-549 554 -920 928 -370 374 -833 841 -1028 1038 l-355 357 -976 0 c-537 0
-976 -2 -976 -5z"/>
<path d="M3168 5733 c281 -280 689 -685 907 -901 217 -217 399 -392 405 -390
5 2 318 309 695 683 378 374 783 776 901 893 169 167 210 212 192 213 -13 0
-830 2 -1817 5 l-1794 4 511 -507z"/>
<path d="M4353 2840 l-482 -485 615 -614 615 -615 966 0 c531 -1 967 2 969 5
2 3 -169 177 -379 387 -655 654 -1733 1725 -1779 1767 l-43 40 -482 -485z"/>
</g>
</svg>
